<?xml version="1.0" standalone="no"?>
<!DOCTYPE svg PUBLIC "-//W3C//DTD SVG 20010904//EN"
 "http://www.w3.org/TR/2001/REC-SVG-20010904/DTD/svg10.dtd">
<svg version="1.0" xmlns="http://www.w3.org/2000/svg"
 width="348.000000pt" height="348.000000pt" viewBox="0 0 348.000000 348.000000"
 preserveAspectRatio="xMidYMid meet">

<g transform="translate(0.000000,348.000000) scale(0.100000,-0.100000)"
fill="#000000" stroke="none">
<path d="M1580 3086 l-255 -345 -596 -3 -595 -3 -41 -27 c-22 -15 -51 -44 -64
-65 l-24 -38 0 -847 0 -846 30 -43 c17 -23 50 -53 74 -66 l44 -23 520 0 c411
0 518 -3 514 -12 -15 -42 -217 -711 -215 -713 2 -1 127 161 278 361 l275 364
711 0 711 0 44 23 c24 13 58 43 74 66 30 43 30 43 33 207 l3 164 190 0 189 0
0 520 0 520 -190 0 -190 0 0 153 c0 142 -2 157 -23 198 -13 24 -43 58 -66 74
l-43 30 -647 5 -647 5 83 335 c45 184 81 339 80 343 -1 4 -117 -147 -257 -337z
m-130 -672 c-49 -203 -90 -372 -90 -376 0 -5 210 -8 466 -8 256 0 464 -4 462
-8 -5 -13 -952 -1262 -954 -1259 -2 1 62 211 141 467 80 256 145 468 145 473
0 4 -198 7 -440 7 -242 0 -440 3 -440 6 0 3 173 239 384 524 211 284 390 527
397 539 8 11 15 17 17 13 1 -5 -38 -175 -88 -378z m-240 181 c0 -5 -144 -201
-577 -783 -95 -128 -173 -234 -173 -235 0 -1 218 -1 485 0 267 1 485 -2 485
-5 1 -4 -43 -152 -97 -329 l-98 -323 -529 0 c-479 0 -531 2 -548 17 -17 15
-18 54 -18 817 0 709 2 804 16 824 l15 22 520 0 c285 0 519 -2 519 -5z m1732
-12 c17 -15 18 -54 18 -821 0 -735 -1 -807 -17 -824 -15 -17 -49 -18 -664 -18
l-648 0 78 103 c386 508 861 1138 861 1142 0 3 -232 5 -515 5 -429 0 -515 2
-515 14 0 11 61 267 91 379 l10 37 641 0 c583 0 643 -2 660 -17z m398 -823 l0
-380 -120 0 -120 0 0 380 0 380 120 0 120 0 0 -380z"/>
</g>
</svg>
