<?xml version="1.0" standalone="no"?>
<!DOCTYPE svg PUBLIC "-//W3C//DTD SVG 20010904//EN"
 "http://www.w3.org/TR/2001/REC-SVG-20010904/DTD/svg10.dtd">
<svg version="1.0" xmlns="http://www.w3.org/2000/svg"
 width="840.000000pt" height="859.000000pt" viewBox="0 0 840.000000 859.000000"
 preserveAspectRatio="xMidYMid meet">

<g transform="translate(0.000000,859.000000) scale(0.100000,-0.100000)"
fill="#000000" stroke="none">
<path d="M574 7105 c-34 -7 -95 -29 -135 -48 -182 -84 -312 -230 -377 -422
l-27 -80 0 -2250 c0 -2461 -4 -2291 60 -2430 89 -193 279 -347 481 -390 104
-22 7154 -22 7258 0 235 50 433 231 514 470 l27 80 0 2260 0 2260 -27 80 c-66
193 -196 339 -380 425 -137 64 144 60 -3768 59 -2930 0 -3576 -3 -3626 -14z
m6921 -495 c-3 -5 -261 -236 -573 -512 -312 -276 -700 -620 -862 -764 -1143
-1013 -1407 -1245 -1500 -1315 -58 -44 -147 -101 -198 -126 -81 -41 -100 -47
-157 -47 -57 0 -76 6 -157 47 -51 25 -140 82 -198 126 -58 43 -450 384 -871
758 -421 373 -958 849 -1194 1058 -236 209 -527 467 -646 573 -120 106 -221
197 -224 202 -4 7 1130 10 3290 10 2168 0 3294 -3 3290 -10z m-6856 -518 c42
-38 315 -277 606 -532 292 -256 697 -611 900 -789 204 -179 414 -363 468 -410
53 -46 96 -88 95 -92 -2 -4 -170 -157 -374 -341 -203 -183 -686 -618 -1072
-965 -386 -348 -704 -633 -707 -633 -3 0 -5 862 -5 1915 0 1053 3 1915 7 1915
3 0 40 -31 82 -68z m7221 -1848 c0 -1860 -1 -1915 -18 -1902 -16 11 -885 792
-1478 1328 -94 85 -282 254 -417 375 -135 121 -246 222 -246 225 -1 3 97 91
217 196 119 105 424 372 677 594 253 222 618 542 810 711 193 168 370 325 395
347 25 23 48 41 53 42 4 0 7 -862 7 -1916z m-4560 -534 c110 -96 236 -197 278
-224 362 -234 902 -233 1260 2 40 26 163 126 273 222 111 96 205 176 209 178
4 2 331 -284 727 -634 395 -350 881 -781 1080 -958 l363 -321 -1646 -3 c-905
-1 -2383 -1 -3285 0 l-1640 3 103 90 c56 50 265 234 463 410 199 176 557 493
795 705 239 212 517 458 618 548 101 90 187 162 192 160 4 -2 99 -82 210 -178z"/>
</g>
</svg>
